<?xml version="1.0" encoding="iso-8859-1"?>
<!-- Generator: Adobe Illustrator 19.0.0, SVG Export Plug-In . SVG Version: 6.00 Build 0)  -->
<svg version="1.1" id="Capa_1" xmlns="http://www.w3.org/2000/svg" xmlns:xlink="http://www.w3.org/1999/xlink" x="0px" y="0px"
	 viewBox="0 0 512.001 512.001" style="enable-background:new 0 0 512.001 512.001;" xml:space="preserve">
<path style="fill:#3BBC56;" d="M342.794,97.484c-3.494-13.199-22.662-70.934-91.716-76.169c-3.284-0.249-5.978,2.564-5.569,5.834
	c2.553,20.308,16.941,83.329,96.817,73.156C342.478,99.357,342.635,98.42,342.794,97.484z"/>
<path style="fill:#30AA44;" d="M265.506,27.149c-0.172-1.37,0.206-2.655,0.939-3.673c-4.826-1.012-9.941-1.749-15.366-2.159
	c-3.284-0.249-5.978,2.564-5.569,5.833c2.483,19.754,16.174,79.916,90.441,73.817C279.123,95.746,267.748,44.981,265.506,27.149z"/>
<path style="fill:#93603E;" d="M349.402,124.797c8.624-27.397,26.881-63.92,57.465-88.861c3.323-2.71,3.253-7.81-0.127-10.447
	L386.293,9.533c-4.67-3.644-11.487-2.236-14.321,2.964c-9.694,17.782-30.701,61.476-34.144,112.197
	C341.682,124.44,345.555,124.468,349.402,124.797z"/>
<path style="fill:#7F573C;" d="M386.635,18.116c1.158-2.123,2.983-3.602,5.052-4.375l-5.393-4.208
	c-4.67-3.644-11.487-2.236-14.321,2.964c-9.694,17.782-30.701,61.476-34.144,112.197c3.854-0.254,7.727-0.226,11.575,0.103
	c1.522-4.835,3.35-9.956,5.487-15.246C361.586,67.91,378.294,33.417,386.635,18.116z"/>
<path style="fill:#30AA44;" d="M492.252,379.221c0,0-0.002-0.215-0.009-0.604c-0.017-3.127-0.166-6.228-0.448-9.299
	c-2.26-32.832-15.697-140.912-95.441-226.814c-25.99-27.997-75.755-27.997-101.745,0c-79.743,85.899-93.18,193.976-95.441,226.811
	c-0.308,3.351-0.457,6.886-0.457,9.904l0,0c0,69.101,65.711,125.119,146.771,125.119
	C426.54,504.341,492.252,448.323,492.252,379.221L492.252,379.221z"/>
<path style="fill:#269E35;" d="M334.971,369.32c-1.971-28.618-12.439-114.406-67.902-192.845
	c-55.462,78.437-65.931,164.221-67.902,192.842c-0.308,3.351-0.457,6.886-0.457,9.904c0,44.519,27.278,83.602,68.359,105.778
	c41.081-22.177,68.359-61.259,68.359-105.778l0,0c0,0-0.001-0.215-0.009-0.604C335.402,375.49,335.253,372.389,334.971,369.32z"/>
<path style="fill:#BAD362;" d="M315.433,379.221c0,0-0.002-0.215-0.009-0.604c-0.017-3.127-0.166-6.228-0.448-9.299
	c-2.26-32.832-15.697-140.912-95.441-226.814c-25.99-27.997-75.755-27.997-101.745,0C38.048,228.404,24.611,336.48,22.35,369.316
	c-0.28,3.05-0.457,6.572-0.457,9.904l0,0c0,69.101,65.711,125.119,146.771,125.119C249.722,504.341,315.433,448.323,315.433,379.221
	L315.433,379.221z"/>
<path style="fill:#9AB748;" d="M41.887,379.221c0-3.332,0.177-6.854,0.457-9.904c2.261-32.836,15.699-140.912,95.442-226.811
	c10.7-11.527,25.433-18.296,40.875-20.331c-22.064-2.908-45.58,3.861-60.87,20.331c-79.743,85.899-93.18,193.976-95.442,226.811
	c-0.28,3.05-0.457,6.572-0.457,9.904c0,69.101,65.711,125.119,146.771,125.119c3.361,0,6.692-0.105,9.997-0.295
	C102.266,499.664,41.888,445.458,41.887,379.221z"/>
<circle style="fill:#93603E;" cx="168.668" cy="369.327" r="75.011"/>
<path style="fill:#7F573C;" d="M113.652,369.33c0-38.032,28.314-69.432,65.009-74.323c-3.273-0.436-6.605-0.683-9.997-0.683
	c-41.425,0-75.007,33.581-75.007,75.006c0,41.425,33.581,75.007,75.007,75.007c3.392,0,6.724-0.247,9.997-0.683
	C141.965,438.762,113.652,407.362,113.652,369.33z"/>
<path d="M84.902,369.33c0,45.493,37.012,82.505,82.504,82.505c38.331,0,71.322-26.015,80.227-63.266
	c0.963-4.028-1.522-8.073-5.55-9.036c-4.022-0.962-8.073,1.522-9.036,5.55c-7.284,30.473-34.277,51.757-65.641,51.757
	c-37.224,0-67.508-30.284-67.508-67.509c0-37.224,30.284-67.508,67.508-67.508c31.364,0,58.357,21.283,65.641,51.756
	c0.962,4.028,5.006,6.51,9.036,5.55c4.027-0.963,6.512-5.008,5.55-9.036c-8.905-37.25-41.894-63.266-80.227-63.266
	C121.914,286.825,84.902,323.836,84.902,369.33z"/>
<path d="M288.251,137.405c-11.641,12.54-22.443,26.195-32.242,40.676c-9.353-13.852-20.028-27.526-32.235-40.676
	c-28.982-31.22-83.801-31.169-112.735,0C29.44,225.303,15.844,336.56,13.619,368.716C3.406,480.755,149.908,551.869,255.942,487.763
	c20.231,12.221,43.724,20.118,68.254,22.908c4.113,0.467,7.829-2.488,8.298-6.602c0.468-4.115-2.488-7.83-6.602-8.298
	c-19.956-2.269-39.127-8.222-56.078-17.352c29.382-22.464,49.084-54.604,51.597-91.499c2.519-37.658-13.019-123.897-56.536-195.11
	c10.281-15.84,21.829-30.693,34.369-44.201c22.953-24.725,67.703-24.831,90.754,0c56.114,60.446,86.535,141.264,93.469,222.4
	c5.884,63.89-49.095,119.507-124.098,126.18c-4.124,0.367-7.171,4.009-6.804,8.133c0.348,3.899,3.619,6.834,7.46,6.834
	c0.223,0,0.447-0.01,0.674-0.03c37.537-3.34,72.282-18.411,97.83-42.437c26.026-24.474,40.36-56.247,40.36-89.533l-0.009-0.578
	c-0.019-3.31-0.178-6.625-0.472-9.854c-2.223-32.148-15.813-143.41-97.419-231.316c-10.271-11.064-24.28-18.609-39.849-21.749
	c8.324-23.009,23.405-52.05,50.211-73.91c7.05-5.752,6.923-16.569-0.255-22.169L390.65,3.622c-8.318-6.492-20.47-3.971-25.517,5.287
	c-7.068,12.967-17.477,34.922-24.836,62.855c-12.226-23.186-37.922-54.059-88.907-57.924c-8.012-0.604-14.578,6.269-13.575,14.245
	c1.593,12.665,8.041,44.251,33.471,63.967c17.8,13.801,39.58,17.955,61.98,16.604c-0.242,2.053-0.462,4.127-0.657,6.218
	C315.243,117.379,299.505,125.282,288.251,137.405z M306.254,370.007c6.332,68.757-58.258,126.837-138.847,126.837
	c-80.141,0-140.169-56.316-139.265-118.068c0.618-43.281,19.043-150.544,93.888-231.168c23.018-24.795,67.709-24.825,90.755,0
	C268.905,208.062,299.322,288.897,306.254,370.007z M378.299,16.086c0.629-1.153,2.112-1.431,3.126-0.642l19.651,15.333
	c-22.565,18.66-40.497,44.49-52.381,75.313C353.037,74.168,363.939,42.43,378.299,16.086z M280.473,80.199
	c-19.347-15-25.473-39.022-27.379-51.158c54.195,5.408,74.021,45.403,80.455,64.577C311.76,95.139,293.934,90.635,280.473,80.199z"
	/>
<path d="M199.363,348.567c-0.071-0.373-0.18-0.752-0.312-1.117c-0.242-0.671-0.589-1.304-1.014-1.877
	c-0.221-0.298-0.461-0.581-0.723-0.836c-1.39-1.4-3.329-2.199-5.299-2.199s-3.909,0.8-5.299,2.199
	c-0.262,0.255-0.502,0.538-0.724,0.836c-0.429,0.578-0.778,1.218-1.021,1.896c-0.129,0.36-0.235,0.732-0.305,1.098
	c-0.1,0.49-0.15,0.98-0.15,1.47s0.05,0.98,0.15,1.47c0.07,0.365,0.176,0.736,0.304,1.095c0.243,0.679,0.592,1.32,1.022,1.898
	c0.222,0.299,0.461,0.582,0.724,0.836c1.39,1.4,3.329,2.199,5.299,2.199s3.909-0.8,5.299-2.199c0.262-0.255,0.502-0.538,0.723-0.836
	c0.426-0.574,0.773-1.208,1.015-1.88c0.131-0.365,0.24-0.743,0.311-1.114c0.1-0.49,0.15-0.98,0.15-1.47
	C199.513,349.547,199.463,349.057,199.363,348.567z"/>
<path d="M199.051,386.608c-0.242-0.671-0.589-1.304-1.014-1.877c-0.221-0.298-0.461-0.581-0.723-0.836
	c-1.39-1.4-3.329-2.199-5.299-2.199s-3.909,0.8-5.299,2.199c-0.262,0.255-0.502,0.538-0.724,0.836
	c-0.429,0.578-0.778,1.218-1.021,1.896c-0.129,0.359-0.235,0.731-0.305,1.097c-0.1,0.49-0.15,0.98-0.15,1.47s0.05,0.98,0.15,1.47
	c0.07,0.365,0.176,0.737,0.304,1.095c0.243,0.679,0.592,1.32,1.022,1.898c0.222,0.299,0.461,0.582,0.724,0.836
	c1.39,1.4,3.329,2.199,5.299,2.199s3.909-0.8,5.299-2.199c0.262-0.254,0.502-0.537,0.723-0.836c0.426-0.574,0.773-1.208,1.015-1.88
	c0.131-0.365,0.24-0.742,0.311-1.115c0.1-0.49,0.15-0.98,0.15-1.47s-0.05-0.98-0.15-1.47
	C199.292,387.352,199.183,386.974,199.051,386.608z"/>
<path d="M219.644,364.877c-0.235-0.288-0.488-0.559-0.761-0.801c-1.454-1.333-3.428-2.041-5.396-1.949s-3.867,0.981-5.191,2.443
	c-0.25,0.267-0.477,0.561-0.684,0.869c-0.402,0.598-0.72,1.253-0.931,1.941c-0.112,0.365-0.201,0.742-0.254,1.11
	c-0.077,0.494-0.105,0.986-0.082,1.476c0.023,0.489,0.096,0.977,0.219,1.461c0.087,0.362,0.21,0.728,0.355,1.08
	c0.274,0.667,0.653,1.291,1.109,1.849c0.235,0.288,0.488,0.56,0.762,0.802c1.454,1.333,3.428,2.041,5.396,1.951
	c1.968-0.092,3.868-0.981,5.191-2.444c0.25-0.267,0.476-0.56,0.684-0.869c0.399-0.593,0.716-1.242,0.927-1.924
	c0.114-0.37,0.205-0.753,0.259-1.128c0.077-0.494,0.104-0.986,0.081-1.475c-0.023-0.49-0.095-0.977-0.218-1.461
	c-0.089-0.369-0.215-0.742-0.364-1.101C220.471,366.046,220.096,365.429,219.644,364.877z"/>
<g>
</g>
<g>
</g>
<g>
</g>
<g>
</g>
<g>
</g>
<g>
</g>
<g>
</g>
<g>
</g>
<g>
</g>
<g>
</g>
<g>
</g>
<g>
</g>
<g>
</g>
<g>
</g>
<g>
</g>
</svg>
