<?xml version="1.0" encoding="iso-8859-1"?>
<!-- Generator: Adobe Illustrator 19.0.0, SVG Export Plug-In . SVG Version: 6.00 Build 0)  -->
<svg version="1.1" id="Capa_1" xmlns="http://www.w3.org/2000/svg" xmlns:xlink="http://www.w3.org/1999/xlink" x="0px" y="0px"
	 viewBox="0 0 512 512" style="enable-background:new 0 0 512 512;" xml:space="preserve">
<path style="fill:#585A60;" d="M489.515,310.269c-7.523-0.304-14.925-0.77-22.247-1.338c-1.023,17.694,5.453,33.991,16.74,45.925
	c7.005-5.928,12.703-11.685,17.304-16.975C510.488,327.331,503.486,310.834,489.515,310.269z"/>
<path style="fill:#E2C01A;" d="M489.515,310.269C208.785,298.919,68.352,98.93,68.352,98.93l-0.061,0.019
	c9.337,26.699,80.995,212.826,294.377,309.219c33.044-4.346,100.496-26.424,138.645-70.289
	C510.488,327.331,503.486,310.834,489.515,310.269z"/>
<path style="fill:#F2D422;" d="M67.496,95.725c0,0,73.004,233.211,337.002,329.351c13.138,4.785,14.795,22.629,2.846,29.891
	c-23.895,14.525-66.638,30.808-135.459,26.986C152.242,475.305-52.385,298.216,26.191,95.725H67.496z"/>
<path style="fill:#E2C01A;" d="M291.892,481.952C172.249,475.305-32.377,298.216,46.197,95.725H26.191
	c-78.576,202.491,126.052,379.58,245.694,386.227c10.633,0.591,20.641,0.699,30.055,0.41
	C298.649,482.269,295.311,482.142,291.892,481.952z"/>
<path style="fill:#585A60;" d="M404.498,425.076c-7.241-2.637-14.329-5.383-21.285-8.218c-6.741,15.762-6.642,33.887,0.622,49.776
	c9.288-3.734,17.087-7.762,23.51-11.666C419.292,447.704,417.636,429.861,404.498,425.076z"/>
<path style="fill:#D6B013;" d="M110.912,147.064c-28.368-27.927-42.56-48.133-42.56-48.133l-0.061,0.02
	c9.337,26.699,80.994,212.826,294.377,309.219c5.483-0.721,11.928-1.942,19.014-3.658
	C226.36,333.999,146.374,215.955,110.912,147.064z"/>
<path style="fill:#E2C01A;" d="M50.404,29.494h-7.121c-9.401,0-17.092,7.691-17.092,17.092v49.138h41.305V46.586
	C67.496,37.186,59.805,29.494,50.404,29.494z"/>
<g>
	<path style="fill:#D6B013;" d="M56.845,30.772c-1.991-0.817-4.164-1.276-6.441-1.276h-7.121c-9.401,0-17.092,7.691-17.092,17.092
		v49.138h20.003V46.587C46.194,39.462,50.614,33.329,56.845,30.772z"/>
	<path style="fill:#D6B013;" d="M84.283,136.318c-11.875-24.907-16.787-40.593-16.787-40.593H26.191
		c-5.302,13.661-9.303,27.207-12.139,40.593H84.283z"/>
</g>
<path style="fill:#CCA70E;" d="M34.058,136.318c2.836-13.386,6.837-26.931,12.139-40.593H26.191
	c-0.021,0.053-0.039,0.105-0.06,0.158c-0.619,1.599-1.221,3.197-1.805,4.793c-0.171,0.466-0.331,0.931-0.498,1.397
	c-0.431,1.198-0.86,2.396-1.271,3.593c-0.165,0.479-0.32,0.957-0.482,1.436c-0.404,1.197-0.805,2.394-1.189,3.59
	c-0.138,0.428-0.27,0.856-0.405,1.285c-0.398,1.26-0.791,2.52-1.168,3.778c-0.106,0.355-0.209,0.71-0.314,1.065
	c-0.397,1.345-0.785,2.689-1.157,4.032c-0.075,0.272-0.149,0.543-0.224,0.815c-0.395,1.44-0.778,2.879-1.145,4.317
	c-0.046,0.181-0.092,0.362-0.138,0.542c-0.39,1.539-0.765,3.076-1.124,4.611c-0.021,0.092-0.043,0.185-0.065,0.277
	c-0.38,1.633-0.743,3.264-1.088,4.892c-0.001,0.004-0.002,0.009-0.003,0.013H34.058z"/>
<path style="fill:#585A60;" d="M489.515,310.269c-6.223-0.251-12.373-0.6-18.458-1.033c-0.106,1.456-0.178,2.921-0.178,4.404
	c0,15.187,5.645,29.046,14.937,39.625c5.538-4.796,10.745-9.921,15.497-15.385C510.488,327.331,503.486,310.834,489.515,310.269z"/>
<path d="M488.853,302.773c-68.406-2.766-137.075-17.367-202.896-45.956c-3.803-1.652-8.218,0.092-9.869,3.892
	c-1.65,3.8,0.092,8.218,3.892,9.869c56.45,24.518,116.466,39.697,178.788,45.267c0.653,13.811,5.409,26.963,13.637,37.973
	c-34.386,26.673-83.219,42.785-109.521,46.614c-41.078-18.792-78.858-42.045-112.973-68.742c29.874,11.972,74.406,24.5,129.952,24.5
	c4.144,0,7.501-3.359,7.501-7.501c0-4.143-3.358-7.501-7.501-7.501c-58.859,0-104.713-14.659-132.816-26.957
	c-30.37-13.289-47.146-26.765-47.468-27.026c-0.054-0.044-0.111-0.08-0.166-0.122c-43.599-43.403-79.123-92.914-105.427-145.508
	c42.292,44.08,95.507,84,153.276,113.55c3.687,1.887,8.207,0.425,10.094-3.263c1.887-3.689,0.427-8.208-3.263-10.095
	C140.628,183.729,79.861,103.279,73.994,95.266c-0.097-0.281-0.181-0.529-0.253-0.744V46.586c0-13.56-11.033-24.593-24.593-24.593
	h-7.122c-13.56,0-24.593,11.033-24.593,24.593v47.772c-41.257,107.923-6.123,216.134,72.133,297.654
	c2.869,2.989,7.617,3.086,10.606,0.217c2.989-2.87,3.086-7.617,0.217-10.606C66.553,346.378-2.538,258.186,18.906,143.82h18.418
	c2.106,12.392,12.163,63.727,42.343,121.394c19.993,38.202,44.706,71.153,73.451,97.941c36.032,33.578,78.484,57.474,126.179,71.026
	c0.686,0.195,1.375,0.288,2.054,0.288c3.269,0,6.274-2.153,7.212-5.453c1.132-3.985-1.181-8.133-5.166-9.266
	c-82.409-23.416-146.405-77.604-190.211-161.061c-27.298-52.006-37.781-99.791-40.605-114.869h25.692
	c57.831,118.414,160.568,220.803,294.206,277.199c-4.046,13.333-3.991,27.78,0.382,41.267
	c-23.954,8.489-57.164,14.653-101.816,12.175c-43.733-2.43-98.166-28.269-145.611-69.119c-3.14-2.703-7.876-2.349-10.579,0.79
	s-2.349,7.876,0.79,10.579c49.865,42.933,107.646,70.122,154.568,72.73c47.555,2.644,99.402-3.532,139.771-28.065
	c17.361-10.552,14.823-36.431-4.176-43.349c-5.85-2.13-12.436-4.651-19.233-7.397c44.058-12.071,89.446-33.359,119.433-67.828
	C519.31,327.509,509.096,303.593,488.853,302.773z M32.435,46.586c0-5.288,4.303-9.591,9.591-9.591h7.122
	c5.288,0,9.591,4.303,9.591,9.591v41.637H32.435V46.586z M22.232,128.816c2.159-8.577,4.799-17.141,7.89-25.59h30.748
	c1.858,5.204,5.225,14.035,10.384,25.59H22.232z M400.674,432.125c7.11,2.589,8.256,12.291,1.459,16.466
	c-4.539,2.755-9.711,5.511-15.327,8.071c-2.943-9.73-3.039-20.232-0.375-29.932C389.055,427.761,397.033,430.807,400.674,432.125z
	 M494.629,333.023c-3.407,3.912-7.028,7.602-10.769,11.08c-5.735-7.956-9.182-17.284-9.987-27.094
	c4.943,0.317,10.745,0.608,14.373,0.754C495.961,318.077,499.748,327.164,494.629,333.023z"/>
<g>
</g>
<g>
</g>
<g>
</g>
<g>
</g>
<g>
</g>
<g>
</g>
<g>
</g>
<g>
</g>
<g>
</g>
<g>
</g>
<g>
</g>
<g>
</g>
<g>
</g>
<g>
</g>
<g>
</g>
</svg>
