<svg height="512" viewBox="0 0 128 128" width="512" xmlns="http://www.w3.org/2000/svg"><g><path d="m54.945 33.919h40.905v37.367h-40.905z" fill="#ef3829" transform="matrix(.707 .707 -.707 .707 59.279 -37.907)"/><path d="m100.575 11.964h20.372v10.549h-20.372z" fill="#ef3829" transform="matrix(.707 .707 -.707 .707 44.631 -73.271)"/><path d="m74.109 77.737a49.912 49.912 0 0 0 -23.623 23.623c-8.542 18.549-22.051 22.64-25.429 19.257l-17.674-17.674c-3.378-3.378.708-16.887 19.257-25.429a49.912 49.912 0 0 0 23.623-23.623z" fill="#8c3f07"/><path d="m100.532 51.314c8.845-8.845 11.094-25.751 11.094-25.751l-9.189-9.189s-16.906 2.249-25.751 11.094z" fill="#8c3f07"/><path d="m54.65 44.426s14.982.321 21.8 14.773a25.707 25.707 0 0 0 10 11.273l3.883-3.883a36.273 36.273 0 0 1 -7.568-12.166c-6.19-16.607-20.98-17.134-20.98-17.134z" fill="#f2e7cb"/><g fill="#422002"><path d="m62.5 63.651a1.75 1.75 0 0 0 -2.475 2.475l3.181 3.181a1.75 1.75 0 1 0 2.474-2.475z"/><path d="m122.931 19.475-5.545-5.546a1.75 1.75 0 1 0 -2.475 2.475l4.308 4.308-4.985 4.988-11.934-11.934 4.984-4.984 2.06 2.059a1.75 1.75 0 0 0 2.475-2.474l-3.3-3.3a1.75 1.75 0 0 0 -2.474 0l-7.46 7.46a1.75 1.75 0 0 0 0 2.474l.238.238c-5.2 1.085-15.261 3.837-22.1 9.8l-1.349-1.349a1.748 1.748 0 0 0 -2.474 0l-19.414 19.426c-.035.032-.068.065-.1.1l-6.9 6.9a1.751 1.751 0 0 0 0 2.475l1.67 1.67c-1.773 3.55-8.491 15.329-22.249 21.665-13.879 6.39-20.032 15.421-21.161 21.741-.5 2.8 0 5.111 1.4 6.513l17.674 17.675a6.166 6.166 0 0 0 4.484 1.589 11.556 11.556 0 0 0 2.029-.19c6.32-1.129 15.351-7.282 21.743-21.162 6.316-13.716 18.113-20.464 21.667-22.247l1.668 1.668a1.752 1.752 0 0 0 2.475 0l9.771-9.772 16.65-16.651a1.748 1.748 0 0 0 0-2.474l-1.349-1.349c5.963-6.835 8.715-16.891 9.8-22.1l.238.238a1.75 1.75 0 0 0 2.474 0l7.46-7.46a1.75 1.75 0 0 0 .001-2.47zm-36.707 48.75a24.175 24.175 0 0 1 -8.189-9.773 27.258 27.258 0 0 0 -19.635-15.298l4.048-4.054c2.922.349 13.686 2.536 18.679 15.931a37.859 37.859 0 0 0 6.8 11.485zm-9.576 9.575-1.31-1.311-3.544-3.545a1.75 1.75 0 0 0 -2.475 2.475l1.823 1.823a51.6 51.6 0 0 0 -22.242 23.386c-5.835 12.67-13.98 18.251-19.181 19.181-1.871.335-2.994 0-3.422-.429l-17.677-17.674c-.427-.427-.764-1.55-.429-3.422.93-5.2 6.511-13.346 19.181-19.181a51.6 51.6 0 0 0 23.389-22.24l3.439 3.437a1.75 1.75 0 1 0 2.474-2.475l-5.16-5.161-1.314-1.312 5.124-5.124c2.913.287 14.08 2.136 19.547 13.718a27.691 27.691 0 0 0 8.838 10.8zm13.762-13.761a34.4 34.4 0 0 1 -6-10.227c-4.666-12.521-13.864-16.465-18.962-17.7l8.7-8.7 26.452 26.441zm10.068-15.253-21.264-21.264c7.415-6.335 19.37-8.73 22.615-9.281l7.93 7.93c-.551 3.245-2.946 15.2-9.281 22.615z"/><path d="m41.885 97.784a1.751 1.751 0 0 0 -2.3.919c-.032.075-3.271 7.5-9.667 11.105a1.75 1.75 0 1 0 1.719 3.049c7.417-4.181 11.015-12.426 11.165-12.775a1.75 1.75 0 0 0 -.917-2.298z"/></g></g></svg>