<?xml version="1.0" encoding="iso-8859-1"?>
<!-- Generator: Adobe Illustrator 19.0.0, SVG Export Plug-In . SVG Version: 6.00 Build 0)  -->
<svg version="1.1" id="Capa_1" xmlns="http://www.w3.org/2000/svg" xmlns:xlink="http://www.w3.org/1999/xlink" x="0px" y="0px"
	 viewBox="0 0 344.8 344.8" style="enable-background:new 0 0 344.8 344.8;" xml:space="preserve">
<path style="fill:#F4F5F7;" d="M208.8,44l30.4,63.2c0,0,14,27.6,14,50.4s0,147.6,0,147.6s2.4,34-25.2,34s-55.6,0-55.6,0
	s-27.6,0-55.6,0s-25.2-34-25.2-34s0-124.8,0-147.6s14-50.4,14-50.4L136,44H208.8z"/>
<path style="fill:#FFFFFF;" d="M116.8,305.2c0,0,0-124.8,0-147.6s14-50.4,14-50.4L161.2,44H136l-30.4,63.2c0,0-14,27.6-14,50.4
	s0,147.6,0,147.6s-2.4,34,25.2,34c8.8,0,17.6,0,25.2,0C114.4,339.2,116.8,305.2,116.8,305.2z"/>
<rect x="93.6" y="168.4" style="fill:#50C1E9;" width="159.2" height="74.8"/>
<rect x="93.6" y="168.4" style="fill:#87D3E8;" width="22" height="74.8"/>
<path style="fill:#FFCE55;" d="M228,25.2c0,10.4-8.4,18.8-18.8,18.8H136c-10.4,0-18.8-8.4-18.8-18.8l0,0c0-10.4,8.4-18.8,18.8-18.8
	h73.2C219.6,6.4,228,14.8,228,25.2L228,25.2z"/>
<path style="fill:#FFDE94;" d="M144.8,25.2c0-10.4,8.4-18.8,18.8-18.8h-28c-10.4,0-18.8,8.4-18.8,18.8S125.2,44,135.6,44h28
	C153.2,44,144.8,35.6,144.8,25.2z"/>
<g>
	<path style="fill:#56596A;" d="M259.2,157.6c0-24-14-52-14.4-53.2l-26.8-56c9.6-3.6,16-12.8,16-23.2C234,11.6,222.8,0,208.8,0H136
		c-13.6,0-25.2,11.2-25.2,25.2c0,10.8,6.8,19.6,16,23.2l-26.8,56c-0.4,1.2-14.4,29.2-14.4,53.2v11.2l0,0l0,0v74.4l0,0l0,0v61.2
		c0,0.8-1.2,20,9.6,31.6c5.6,6,12.8,8.8,21.6,8.8H228c8.8,0,16.4-2.8,21.6-8.8c10.8-11.6,9.6-30.8,9.6-31.2L259.2,157.6L259.2,157.6
		z M122.8,25.2c0-7.2,5.6-12.8,12.8-12.8h73.2c7.2,0,12.8,5.6,12.8,12.8c0,7.2-5.6,12.8-12.8,12.8H136
		C128.8,38,122.8,32.4,122.8,25.2z M97.6,157.6c0-20.8,13.2-47.6,13.2-48L139.6,50h65.6l28.8,59.6c0,0.4,13.2,26.8,13.2,47.6v5.2
		H97.6V157.6z M97.6,175.2h149.2v62.4H97.6V175.2z M240.8,328.4c-3.2,3.2-7.2,4.8-12.8,4.8H116.8c-5.6,0-9.6-1.6-12.8-4.8
		c-7.2-8-6.4-22.4-6.4-23.2v-55.6h149.2v56C247.2,306,248,320.4,240.8,328.4z"/>
	<path style="fill:#56596A;" d="M136.8,186.8l-4.4,13.2c-1.2,4.4-2.8,9.6-4,14.4l0,0c-0.8-4.8-2-9.6-3.2-14.4l-4-13.2h-12l-2.4,40
		h8.4l0.8-15.2c0.4-4.8,0.4-11.2,0.8-16.4l0,0c0.8,5.2,2.4,10.8,3.6,15.6l4.4,15.6h7.2l4.8-15.6c1.6-4.8,3.2-10.4,4.4-15.6l0,0
		c0,6,0,11.6,0.4,16.4l0.4,15.2h8.8l-2-40H136.8z"/>
	<rect x="158" y="186.8" style="fill:#56596A;" width="9.2" height="40"/>
	<polygon style="fill:#56596A;" points="184,186.8 174.8,186.8 174.8,226.8 200,226.8 200,219.2 184,219.2 	"/>
	<path style="fill:#56596A;" d="M237.2,186.8H226l-9.2,13.2c-0.8,1.6-2,2.8-2.8,4.4l0,0v-17.6h-8.8v40h8.8v-13.2l3.6-4.4l9.6,17.2
		h10.4l-14-22.8L237.2,186.8z"/>
</g>
<g>
</g>
<g>
</g>
<g>
</g>
<g>
</g>
<g>
</g>
<g>
</g>
<g>
</g>
<g>
</g>
<g>
</g>
<g>
</g>
<g>
</g>
<g>
</g>
<g>
</g>
<g>
</g>
<g>
</g>
</svg>
