<?xml version="1.0" encoding="iso-8859-1"?>
<!-- Generator: Adobe Illustrator 19.0.0, SVG Export Plug-In . SVG Version: 6.00 Build 0)  -->
<svg version="1.1" id="Capa_1" xmlns="http://www.w3.org/2000/svg" xmlns:xlink="http://www.w3.org/1999/xlink" x="0px" y="0px"
	 viewBox="0 0 512.001 512.001" style="enable-background:new 0 0 512.001 512.001;" xml:space="preserve">
<path style="fill:#EFC797;" d="M191.335,339.482c11.152-34.568,21.005-31.557,28.761-60.747c4.383-16.495,9.368-42.911,5.907-69.236
	l-0.728-0.732c-3.925,28.488-23.335,70.284-47.222,86.209c-29.508,18.189-49.535,53.627-49.535,94.367
	c0,59.908,43.317,108.444,96.554,107.307C185.632,468.793,174.511,391.647,191.335,339.482z"/>
<path style="fill:#E0B586;" d="M148.638,389.345c0-40.74,20.028-76.179,49.535-94.367c8.986-5.99,17.337-15.643,24.47-26.87
	c3.449-16.097,6.151-37.38,3.359-58.607l-0.728-0.732c-3.925,28.488-23.335,70.284-47.222,86.209
	c-29.508,18.189-49.535,53.627-49.535,94.367c0,59.908,43.317,108.444,96.554,107.307c-1.299-0.918-2.565-1.891-3.803-2.914
	C179.564,482.461,148.638,439.964,148.638,389.345z"/>
<path style="fill:#EFC797;" d="M337.311,294.977c-23.892-15.928-43.297-57.714-47.222-86.209l-1.16,1.166
	c-3.35,26.181,2.615,52.397,6.974,68.801c2.69,10.126,5.42,19.579,11.915,27.8c0.195,0,4.422,7.01,4.519,7.179
	c0.947,1.641,1.851,3.303,2.667,4.876c30.484,59.098,16.321,148.799-25.068,178.05c53.306,1.367,96.91-47.159,96.91-107.298
	C386.847,353.565,358.77,308.205,337.311,294.977z"/>
<path style="fill:#E0B586;" d="M338.463,318.593c-0.816-1.573-1.72-3.236-2.667-4.876c-0.098-0.17-4.324-7.179-4.519-7.179
	c-6.495-8.221-9.225-17.674-11.915-27.8c-0.17-0.639-0.342-1.298-0.516-1.966c-14.927-19.712-25.91-47.345-28.756-68.003
	l-1.16,1.166c-3.35,26.181,2.616,52.397,6.974,68.801c2.69,10.126,5.42,19.579,11.915,27.8c0.195,0,4.422,7.01,4.519,7.179
	c0.947,1.641,1.851,3.303,2.667,4.876c30.484,59.098,16.321,148.799-25.068,178.05c10.029,0.258,19.715-1.254,28.832-4.274
	C355.957,459.443,367.587,375.053,338.463,318.593z"/>
<path style="fill:#3BBC56;" d="M236.802,103.226c6.207,11.158,11.905,23.139,16.549,34.665c2.567-10.386,5.896-21.461,10.189-32.682
	c-3.091-29.042-11.042-63.939-29.82-94.282c-1.604-2.592-5.619-1.234-5.336,1.801L236.802,103.226z"/>
<path style="fill:#30AA44;" d="M253.915,100.504l-5.595-60.149c-3.933-10.041-8.739-19.957-14.6-29.428
	c-1.604-2.592-5.619-1.234-5.336,1.801l8.418,90.498c6.207,11.158,11.905,23.139,16.549,34.665
	c1.76-7.118,3.886-14.563,6.427-22.153c-1.008-1.986-2.034-3.961-3.078-5.917C255.158,106.933,254.219,103.764,253.915,100.504z"/>
<path style="fill:#3BBC56;" d="M294.732,47.475c-22.748,27.526-35.376,61.046-42.387,89.41c3.327,8.263,5.801,16.819,7.417,25.539
	h14.232c1.348-8.433,0.372-3.55,25.781-112.439C300.466,47.017,296.673,45.125,294.732,47.475z"/>
<path style="fill:#30AA44;" d="M269.894,128.779c5.414-19.524,13.524-40.878,25.666-60.747c1.318-5.642,2.717-11.637,4.211-18.04
	c0.694-2.974-3.103-4.862-5.048-2.508c-22.743,27.524-35.369,61.04-42.379,89.401c3.327,8.263,5.801,16.819,7.417,25.539h14.232
	c0.2-1.253,0.35-2.212,0.541-3.294c-1.094-5.18-2.493-10.297-4.197-15.321C268.689,138.952,268.524,133.72,269.894,128.779z"/>
<path style="fill:#3BBC56;" d="M177.335,31.513c-2.45-1.813-5.676,0.935-4.29,3.649c50.499,98.869,54.111,103.276,60.347,127.261
	h27.374C254.001,125.912,221.435,64.154,177.335,31.513z"/>
<path style="fill:#30AA44;" d="M177.335,31.513c-2.45-1.813-5.676,0.935-4.29,3.649c50.499,98.869,54.111,103.276,60.347,127.261
	h20.121c-5.774-22.205-9.303-27.642-49.861-106.769C195.485,46.65,186.672,38.424,177.335,31.513z"/>
<path style="fill:#EFC797;" d="M310.837,306.536c-6.289-7.96-11.153-17.359-13.927-27.8c-6.938-26.112-15.414-77.084,10.561-113.2
	c1.238-1.722,0.049-4.119-2.071-4.119c-2.292,0-97.411,0-95.803,0c-2.121,0-3.31,2.396-2.071,4.119
	c25.974,36.116,17.498,87.088,10.561,113.2c-2.599,9.78-7.212,19.301-13.927,27.8l0,0c-50.185,73.275-15.197,200.989,53.34,200.989
	c38.521,0,70.432-42.955,76.077-99.029C340.007,344.574,310.837,306.536,310.837,306.536z"/>
<path style="fill:#E0B586;" d="M224.75,306.536c6.715-8.499,11.329-18.021,13.928-27.8c6.938-26.112,15.414-77.084-10.561-113.2
	c-1.238-1.722-0.049-4.119,2.071-4.119c-0.001,0-0.003,0-0.005,0c-11.71,0-20.154,0-20.589,0c-2.121,0-3.31,2.396-2.071,4.119
	c25.974,36.116,17.498,87.088,10.561,113.2c-2.599,9.78-7.212,19.301-13.928,27.8c-50.185,73.275-15.196,200.989,53.34,200.989
	c3.462,0,6.869-0.352,10.21-1.025C206.159,494.401,177.169,376.01,224.75,306.536z"/>
<path d="M271.312,497.343c-7.981,2.834-5.862,14.657,2.525,14.657c3.914,0,13.388-5.295,17.144-7.756
	c51.064-0.08,94.581-42.92,101.257-99.713c0.486-4.139-2.474-7.889-6.613-8.374c-4.138-0.49-7.889,2.474-8.374,6.613
	c-4.902,41.698-32.282,74.711-66.952,83.854c39.373-47.936,40.075-133.931,5.413-184.48l0,0
	c-7.485-10.842-11.489-15.717-16.237-40.544c10.973,21.336,26.126,35.785,32.614,39.801c23.031,14.195,39.16,39.103,44.253,68.334
	c0.715,4.106,4.625,6.849,8.729,6.139c4.106-0.715,6.854-4.623,6.139-8.729c-5.809-33.344-24.339-61.888-50.863-78.382
	c-36.735-28.359-41.869-81.16-42.482-82.733c5.906-34.233,20.795-35.885,15.272-46.663c-1.737-3.388-5.185-5.494-8.998-5.494
	h-22.326c0.448-2.093-1.143,4.78,24.05-103.179c1.107-4.742-1.171-9.565-5.537-11.729c-4.362-2.159-9.57-1.05-12.668,2.697
	c-8.56,10.357-16.159,22.009-22.782,34.868c-5.367-27.218-14.403-51.225-27.003-71.586c-5.785-9.349-20.282-4.452-19.265,6.471
	l5.497,59.096c-12.016-16.731-26.72-32.875-44.544-46.068c-3.91-2.892-9.233-2.716-12.945,0.432
	c-3.717,3.151-4.768,8.379-2.553,12.716c51.493,100.815,51.657,99.757,57.002,116.283h-12.728c-8.256,0-13.025,9.356-8.197,16.07
	c7.998,11.12,12.45,23.854,14.598,36.834c-0.298,1.081-5.771,53.839-42.241,81.988c-32.57,20.254-52.783,58.752-52.783,100.582
	c0,63.16,45.605,114.575,101.768,114.894c4.651,3.048,9.536,5.516,14.623,7.323c3.927,1.394,8.241-0.658,9.636-4.585
	c1.395-3.927-0.657-8.241-4.585-9.636c-44.284-15.733-69.725-97.19-44.315-162.869c10.893-28.289,20.411-27.957,27.277-53.8
	c9.655-36.345,11.919-79.211-6.69-111.71c9.117,0,65.036,0,77.621,0c-16.215,28.319-16.435,64.028-10.298,95.927
	c8.219,42.705,17.598,37.551,29.645,66.486C340.427,393.914,318.587,480.551,271.312,497.343z M178.414,341.977
	c-5.889,20.269-8.118,43.899-5.767,67.274c0,0,2.961,44.956,29.443,77.276c-38.521-10.336-67.292-49.985-67.292-97.183
	c0-36.776,17.607-70.474,45.95-87.945c0.248-0.153,0.462-0.304,0.676-0.469c14.159-10.845,24.221-24.621,31.346-38.173
	C203.676,308.515,192.196,293.886,178.414,341.977z M236.859,153.872c-6.072-20.62-9.239-25.011-48.73-102.325
	c28.748,27.997,53.553,73.939,60.955,102.325H236.859z M249.532,113.734c-2.332-4.847-4.872-9.824-7.642-14.874l-6.097-65.548
	c8.918,20.041,14.876,43.105,17.774,68.87C252.156,105.957,250.805,109.8,249.532,113.734z M264.629,153.872
	c-1.387-5.991-3.327-12.433-5.637-18.485c5.782-22.599,14.358-45.192,26.853-65.339c-19.701,84.424-18.579,79.423-19.44,83.824
	H264.629z"/>
<g>
</g>
<g>
</g>
<g>
</g>
<g>
</g>
<g>
</g>
<g>
</g>
<g>
</g>
<g>
</g>
<g>
</g>
<g>
</g>
<g>
</g>
<g>
</g>
<g>
</g>
<g>
</g>
<g>
</g>
</svg>
