<svg height="512" viewBox="0 0 128 128" width="512" xmlns="http://www.w3.org/2000/svg"><g><path d="m6.306 93.295h115.387v10.339h-115.387z" fill="#ef3829"/><path d="m108.453 103.634a21.475 21.475 0 0 1 -19.607 12.717h-49.692a21.475 21.475 0 0 1 -19.607-12.717z" fill="#ef3829"/><path d="m56.638 38.735h3.485a8.106 8.106 0 0 0 6.2-2.88l4.423-5.244 45.174 2.577a5.543 5.543 0 1 0 0-11.077l-45.177 2.576-4.423-5.244a8.109 8.109 0 0 0 -6.2-2.88h-3.482z" fill="#f2e7cb"/><path d="m64 68.822q-3.75 0-7.362.271v-53.183a4.261 4.261 0 0 0 -4.26-4.261h-18a4.261 4.261 0 0 0 -4.26 4.261v59.49l.025-.006c-9.813 4.441-16.31 10.777-17.3 17.9h102.314c-1.909-13.679-24.084-24.472-51.157-24.472z" fill="#ffde3e"/><g fill="#422002"><path d="m121.693 91.545h-5.093c-3.347-14.054-25.478-24.473-52.6-24.473-1.9 0-3.768.055-5.612.155v-26.742h1.735a9.837 9.837 0 0 0 7.534-3.5l3.859-4.576 44.328 2.529a7.294 7.294 0 1 0 -.027-14.574l-44.3 2.528-3.859-4.577a9.837 9.837 0 0 0 -7.534-3.5h-1.84a6.017 6.017 0 0 0 -5.906-4.915h-18a6.018 6.018 0 0 0 -6.01 6.011v8.5a1.75 1.75 0 0 0 3.5 0v-8.5a2.513 2.513 0 0 1 2.51-2.511h3.1v57.35q-2.932.883-5.612 1.959v-40.625a1.75 1.75 0 1 0 -3.5 0v42.156c-9.109 4.347-15.318 10.383-16.966 17.305h-5.093a1.75 1.75 0 0 0 -1.75 1.75v10.339a1.75 1.75 0 0 0 1.75 1.75h12.151a23.244 23.244 0 0 0 20.7 12.717h24.322a1.75 1.75 0 1 0 0-3.5h-24.326a19.752 19.752 0 0 1 -16.689-9.217h83.07a19.752 19.752 0 0 1 -16.689 9.216h-3.973a1.75 1.75 0 1 0 0 3.5h3.973a23.246 23.246 0 0 0 20.7-12.717h12.151a1.75 1.75 0 0 0 1.75-1.75v-10.333a1.75 1.75 0 0 0 -1.754-1.755zm-56.712-70.974 4.419 5.245a1.741 1.741 0 0 0 1.438.619l45.148-2.576a3.721 3.721 0 0 1 2.785 1.052 3.794 3.794 0 0 1 -2.758 6.53l-45.171-2.577a1.757 1.757 0 0 0 -1.438.619l-4.423 5.244a6.342 6.342 0 0 1 -4.858 2.258h-1.735v-18.672h1.735a6.342 6.342 0 0 1 4.858 2.258zm-10.093-4.661v51.571q-2.862.255-5.612.662v-54.743h3.1a2.513 2.513 0 0 1 2.512 2.51zm-13.904-2.51h4.792v55.337q-2.457.467-4.792 1.054zm-10.451 63.7a1.728 1.728 0 0 0 .584-.259 64.089 64.089 0 0 1 8.4-3.018 1.714 1.714 0 0 0 .359-.1 80.9 80.9 0 0 1 7.96-1.791c.018 0 .037 0 .055-.009a95.05 95.05 0 0 1 16.109-1.351c24.562 0 45.334 9.063 48.969 20.973h-5.45c-4.119-9.794-22.011-16.776-43.519-16.776s-39.395 6.982-43.519 16.776h-5.45c1.737-5.693 7.387-10.735 15.502-14.445zm66.458 14.445c-2.952-4.633-13.969-9.206-32.991-9.206s-30.038 4.572-32.991 9.206h-6.609c4.684-7.6 21.145-13.276 39.6-13.276s34.912 5.674 39.6 13.276zm-4.783 0h-56.416c4.393-3.045 15.017-5.706 28.208-5.706s23.816 2.661 28.208 5.706zm27.735 10.339h-111.886v-6.839h111.886z"/><path d="m76.635 114.6h-4.5a1.75 1.75 0 0 0 0 3.5h4.5a1.75 1.75 0 0 0 0-3.5z"/></g></g></svg>