<?xml version="1.0" encoding="iso-8859-1"?>
<!-- Generator: Adobe Illustrator 19.0.0, SVG Export Plug-In . SVG Version: 6.00 Build 0)  -->
<svg version="1.1" id="Capa_1" xmlns="http://www.w3.org/2000/svg" xmlns:xlink="http://www.w3.org/1999/xlink" x="0px" y="0px"
	 viewBox="0 0 512 512" style="enable-background:new 0 0 512 512;" xml:space="preserve">
<path style="fill:#B78855;" d="M240.822,326.571l0.003-0.001c-1.009-0.862-1.801-1.851-2.354-2.975
	c-8.644-17.55,35.195-57.762,107.786-93.517c16.295-8.026,32.247-17.99,47.293-23.772c-23.187-56.981-84.274-97.764-148.245-97.764
	c-81.354,0-236.548,65.951-236.548,147.305c0,126.876,155.194,147.305,236.548,147.305c21.534,0,42.742-4.623,62.288-12.927
	C277.37,377.197,258.614,354.981,240.822,326.571z"/>
<path style="fill:#A3764A;" d="M27.54,255.846c0-59.367,77.388-111.05,154.121-137.831C101.874,139.056,8.756,192.829,8.756,255.846
	c0,76.878,56.981,114.671,119.987,132.522C72.98,366.568,27.54,326.791,27.54,255.846z"/>
<path style="fill:#B78855;" d="M494.331,193.585L232.822,326.571c40.188,64.171,126.095,96.78,194.413,63.13
	C496.684,355.493,522.929,265.14,494.331,193.585z"/>
<path style="fill:#A3764A;" d="M447.332,376.38c-67.482,33.238-152.121,1.824-192.912-60.794l-21.598,10.983
	c40.188,64.171,126.095,96.78,194.413,63.13c8.709-4.289,16.737-9.463,24.064-15.37C449.991,375.032,448.672,375.72,447.332,376.38z
	"/>
<ellipse transform="matrix(0.8971 -0.4419 0.4419 0.8971 -77.1394 186.5696)" style="fill:#E0B377;" cx="361.914" cy="258.869" rx="146.526" ry="35.424"/>
<path style="fill:#CC9A5E;" d="M249.899,323.595c-8.644-17.55,43.196-60.762,115.786-96.517
	c45.467-22.394,88.288-36.55,116.067-39.692c-23.576-4.1-77.374,11.063-135.497,39.692c-72.592,35.755-124.43,78.967-115.786,96.517
	c3.23,6.558,14.45,8.603,31.022,6.729C255.624,329.303,251.622,327.093,249.899,323.595z"/>
<path d="M134.317,237.833v7.463c0,4.143,3.357,7.5,7.5,7.5c4.143,0,7.5-3.357,7.5-7.5v-7.463c0-4.143-3.357-7.5-7.5-7.5
	C137.674,230.333,134.317,233.69,134.317,237.833z"/>
<path d="M209.18,237.833v7.463c0,4.143,3.357,7.5,7.5,7.5c4.143,0,7.5-3.357,7.5-7.5v-7.463c0-4.143-3.357-7.5-7.5-7.5
	C212.537,230.333,209.18,233.69,209.18,237.833z"/>
<path d="M244.163,165.302v7.463c0,4.143,3.357,7.5,7.5,7.5c4.143,0,7.5-3.357,7.5-7.5v-7.463c0-4.143-3.357-7.5-7.5-7.5
	C247.52,157.802,244.163,161.159,244.163,165.302z"/>
<path d="M66.451,237.833v7.463c0,4.143,3.357,7.5,7.5,7.5c4.143,0,7.5-3.357,7.5-7.5v-7.463c0-4.143-3.357-7.5-7.5-7.5
	C69.808,230.333,66.451,233.69,66.451,237.833z"/>
<path d="M99.334,319.692v7.463c0,4.143,3.357,7.5,7.5,7.5c4.143,0,7.5-3.357,7.5-7.5v-7.463c0-4.143-3.357-7.5-7.5-7.5
	C102.691,312.192,99.334,315.55,99.334,319.692z"/>
<path d="M176.8,312.192c-4.143,0-7.5,3.357-7.5,7.5v7.463c0,4.143,3.357,7.5,7.5,7.5s7.5-3.357,7.5-7.5v-7.463
	C184.3,315.55,180.942,312.192,176.8,312.192z"/>
<path d="M184.3,165.302c0-4.143-3.357-7.5-7.5-7.5s-7.5,3.357-7.5,7.5v7.463c0,4.143,3.357,7.5,7.5,7.5s7.5-3.357,7.5-7.5V165.302z"
	/>
<path d="M418.958,341.645l-7.147,3.113c-7.428,3.236-5.073,14.378,2.999,14.378c1.978,0,2.418-0.376,10.139-3.739
	c3.798-1.654,5.535-6.073,3.881-9.871C427.175,341.729,422.758,339.993,418.958,341.645z"/>
<path d="M349.497,341.636l-6.851,2.957c-3.803,1.642-5.555,6.055-3.913,9.858c1.224,2.834,3.986,4.529,6.89,4.529
	c0.991,0,2-0.198,2.969-0.616l6.851-2.957c3.803-1.642,5.555-6.055,3.913-9.858C357.715,341.748,353.305,339.995,349.497,341.636z"
	/>
<path d="M500.906,289.14c4.108,0.686,7.956-2.091,8.638-6.155c5.287-31.52,2.001-63.397-9.504-92.184
	c-0.786-1.965-2.312-3.41-4.128-4.152c-17.309-18.056-76.336,1.574-99.617,10.138c-22.455-48.12-71.077-84.499-125.908-93.56
	c-4.087-0.675-7.947,2.091-8.622,6.177c-0.676,4.087,2.09,7.947,6.177,8.622c49.689,8.212,93.756,40.884,114.339,84.154
	c-80.134,32.218-186.252,99.47-156.628,129.121c1.236,1.239,19.329,34.363,61.578,57.894c-14.171,4.289-28.635,6.457-43.18,6.457
	C136.752,395.651,15,363.657,15,255.847c0-72.178,138.194-134.744,219.603-139.518c4.135-0.242,7.29-3.791,7.048-7.927
	c-0.241-4.135-3.771-7.281-7.927-7.048C149.378,106.301,0,171.169,0,255.847c0,117.307,126.684,154.804,244.049,154.804
	c21.115,0,42.039-4.143,62.245-12.301c43.625,17.789,87.527,15.55,122.999-1.92c31.455-15.493,56.461-43.257,70.408-78.174
	c1.536-3.847-0.336-8.211-4.183-9.747c-3.845-1.534-8.21,0.336-9.747,4.183c-42.254,105.78-170.749,105.219-236.358,25.77
	c62.567,0.21,208.127-71.994,243.379-120.919c4.819,20.302,5.524,41.709,1.959,62.962
	C494.066,284.589,496.821,288.455,500.906,289.14z M459.858,229.785c-21.427,17.861-52.277,37.08-86.868,54.118c0,0,0,0-0.001,0
	c-84.339,41.543-136.761,44.498-137.222,35.584c-0.168-3.268,3.946-13.447,25.678-31.563
	c53.902-44.93,162.771-93.712,210.389-93.712c9.26,0,12.93,2.005,13.526,3.217C486.367,199.47,483.84,209.794,459.858,229.785z"/>
<g>
</g>
<g>
</g>
<g>
</g>
<g>
</g>
<g>
</g>
<g>
</g>
<g>
</g>
<g>
</g>
<g>
</g>
<g>
</g>
<g>
</g>
<g>
</g>
<g>
</g>
<g>
</g>
<g>
</g>
</svg>
